<svg xmlns="http://www.w3.org/2000/svg" viewBox="0 0 374.1 204.12"><defs><style>.cls-1{fill:#f57a6d;}</style></defs><title>Asset 2</title><g id="Layer_2" data-name="Layer 2"><g id="Layer_1-2" data-name="Layer 1"><path class="cls-1" d="M374.1,121.51v-.21l-4.49.18-14,9L351.76,133l-4,2.56-3.59,2.32-60.78,39.35-5.1.1H205V159.43l4.7,0,41.29-.16h32.45l89.47-58a4.33,4.33,0,0,1,.55-.35l.58-.38v.1h0V88.67h0l-5.65.24-85,56.46-4,.54h-72l-2.41-.05V121l9.8,0,41.36-.13h26.24l1,0,3.81-2.37,5-3.4,13-8.41,15.19-9.84,17.29-11.19,16.4-10.62,12.52-8.1,6.23-4,1.19-.77v0l0,0L374,52.44l-6.36.41-25,16.2L318.39,84.71l-24.29,15.73-5,3.22-5.64,3.66-.44,0-4.85.18-23.6-.05-33.08-.08-16.47,0V88.93l10.16,0L258,88.75h22.07l3.51-.09.71-.46,8-5.18,14-9.15,17.57-11.45L342.2,50.47l16.34-10.65,11.8-7.69L373.64,30l.37-.24.06-17.37-6,0L350,12.19,328.51,12,311,11.89l-5,0-6.21,0,0-2.31-.2-9.13L299.28,0H175.39l-.77.68-1.79,1.5L158.44,12.53,107.72,12l-4.37.32L0,80v8.5l77.42,1.07v13.16l-72.94-.89L.13,102v12l1,.11,3.41.24,3.67-.11,2.88,0,15.22.13,21.17.17,19.39.16,6.59.05,2.11,0h1.12l.71,0v11.65H2.11l-2,0v13.17H1.21l25,.16,35,.23,12.11.08,3.19,0h1v7.67l0,3.09,0,1.46H75.56l-10.16.06-34.11.19-27.82.16H.15v12H23.51l35.24,0,18.63,0,0,4.13v7.26l0,2.18-1.22.08-3.24,0-27.54,0-27.66-.12-12.71,0H2l-1.83,0,0,12.63,4.69-.05,3.5,0,14.22.11,29.28.13,14.16,0h9.59l1.79,0v12.64H205.13V191.47l6.72,0,11.3-.05L268,191.3h15.49l.12-.08,12.49-8.06,16.14-10.42,18.62-12L348.92,149l14.27-9.3,10.91-7.06V121.51ZM77.42,75.88H28.76l14.48-9.8,27.92-19,25.27-17.2,6.83-4.65.23-.16h3.25l34-.14-63.1,46ZM193.74,64.13l-.36,1.38V189.7H90.75l0-10.49.34-41.52.4-41.49,0-10.56V76.54l1.24-.92,8.11-6,13.5-10L131,47.3l17.06-12.66,15.27-11.33,10.91-8.09,4.2-3.12,10.42-.2,12.34-.23,17.6.31,53.78-.15-.68.45L257.25,22l-25.18,16.7L207.19,55.21l-8.82,5.85ZM204.33,74l17.25-11.25,23.55-15.24,23.74-15.37,10.28-6.66,2.09-1.35h76.59L342.23,34.23,308.37,56.14,276.77,76.6h0l-16.17-.17-28.75-.26L209.59,76l-2.6,0-2.7-.08Z"/><path class="cls-1" d="M161.16,140.23c1.72,11.62-8.35,20.54-18.77,23.06-.83.2-.87,0-.87.78v7.68a29.44,29.44,0,0,1,0,4.34c0,.3.06.27-.12.38s-1.31,0-1.67,0H134c-.44,0-2.48.25-2.72-.07s0-1.06,0-1.29V164.88c0-.55,0-.45-.53-.54a11.29,11.29,0,0,1-4.51-2.08A34.21,34.21,0,0,1,116.88,152c-2.1-3.44-4.18-7.88-3.36-12,.11-.54.16-1.26.66-1.41a7.64,7.64,0,0,1,1.91,0h6.7c-.3,1.67.61,3.61,1.31,5.07A26.6,26.6,0,0,0,128.4,150a14,14,0,0,0,5.8,4.14c2.41.77,5,.05,7.25-1,4.17-2,9.83-6.61,8.45-11.86-1.46-5.55-7.69-9.21-12.67-11.08s-10.33-3.94-14.32-7.62c-3.82-3.53-5.31-8.37-5.38-13.47a26.35,26.35,0,0,1,4.94-16.38,29,29,0,0,1,6-5.84q.84-.62,1.72-1.19c.35-.23,1.4-.65,1.58-1a3.71,3.71,0,0,0,0-1.21V74.83a10.29,10.29,0,0,1,0-1.9c.08-.4-.1-.22.24-.33a7.24,7.24,0,0,1,2,0h6.1c.41,0,1.44-.2,1.8,0s.14.11.15.47c0,1.71,0,3.42,0,5.13s-.13,3.47,0,5.17c.05.65.26.42,1,.55a15,15,0,0,1,3.15,1,27.45,27.45,0,0,1,13.94,13.62A21.77,21.77,0,0,1,162,106c0,.36.29,2.06,0,2.29s-1.28,0-1.53,0l-6,0c-.3,0-1.34.19-1.59,0s-.27-1.31-.33-1.58a21.48,21.48,0,0,0-6.42-10.9c-2-1.71-4.48-3-7.15-2.37-4.47,1.08-8.22,5.94-9.64,10.11-1.26,3.67,1,8.16,3.23,11a13.93,13.93,0,0,0,6.23,4.72,31.87,31.87,0,0,0,4,.9,25.54,25.54,0,0,1,4.36,1.45A22,22,0,0,1,158.69,132,27.33,27.33,0,0,1,161.16,140.23Z"/><path class="cls-1" d="M373.36,48.51"/></g></g></svg>