<svg xmlns="http://www.w3.org/2000/svg" viewBox="0 0 346.92 348.47"><defs><style>.cls-1{fill:#f57d70;}</style></defs><title>Asset 3</title><g id="Layer_2" data-name="Layer 2"><g id="Layer_1-2" data-name="Layer 1"><path class="cls-1" d="M311.12,93c2,4.66,3.8,9.38,5.38,14.19,1.49,4.53,2.53,9.19,4.16,13.67,2.63,7.21,6.69,13.59,11.21,19.74,1.19,1.63,2.4,3.25,3.6,4.87a36.19,36.19,0,0,1,3.07,4.48,29.53,29.53,0,0,1,3.32,8.26,19.33,19.33,0,0,1-1.48,11.69c-.93,1.78-2,3.48-3,5.23-1.18,2.07-3.22,3.58-5.06,5s-3.47,2.68-5.25,3.95c6.36,2.92,12.69,7,16.52,13a22.06,22.06,0,0,1,3.19,14.51c-1.05,8.9-6.24,17-11.94,23.7a56.5,56.5,0,0,1-4.33,4.61c1.63,1.2,3.3,2.37,4.9,3.61a18,18,0,0,1,3.32,4.08,41.25,41.25,0,0,1,3.51,6.12,38.77,38.77,0,0,1,3.33,20.62,32.14,32.14,0,0,1-2.6,9.83c-2.45,5.26-7.17,8.69-11.75,12s-9,6.69-11.26,11.93c-1.42,3.35-1.41,6.72-1.65,10.27a28.47,28.47,0,0,1-2.85,10.9c-3.21,6.39-8.94,10.91-14.67,14.95a30.75,30.75,0,0,1-4.73,2.67,18.16,18.16,0,0,1-3.71,1.13,14.34,14.34,0,0,1-2.17.38c-2.66.06-4.75.07-7.41.05l-17.86-.11-25.31-.15L209.33,348l-32.87-.2-33.1-.2-31-.19-26.44-.16-19.4-.12-10.06-.06c-1.22,0-2.41-.09-3.63-.11a19.74,19.74,0,0,1-4.77-.73,14.72,14.72,0,0,1-4.57-2.06c-3.18-2.13-6.91-4.44-8.91-7.82-1-1.66-2.09-3.27-2.91-5-.91-1.94-1.3-3.29-2.09-5-1.6-3.43-1.57-7.74-.78-11.27.45-2,1-4,1.61-5.93.28-.93.57-1.86.84-2.79.1-.32.7-1.64.55-1.94s-1-.37-1.18-.43l-2.83-1-7.59-2.77c-1.72-.63-3.46-1.2-5.16-1.88A21.93,21.93,0,0,1,6.83,292c-2.69-3.29-4.22-7.78-5.17-11.87a45.57,45.57,0,0,1-1-13.42c.29-4.29,1-8.79,3.09-12.6a24,24,0,0,1,8.17-8.53l2.84-1.8c.82-.52,2-1,2.16-2.05s-.67-1.69-1.44-2.26l-3-2.28a25.12,25.12,0,0,1-4.86-4.38,40.61,40.61,0,0,1-5.62-9.68A19.32,19.32,0,0,1,0,215.34c.06-2.25.19-4.49.28-6.74A47.4,47.4,0,0,1,.59,203c.69-4.23,3.46-8,6.26-11.13a27.71,27.71,0,0,1,4.1-4c.58-.42,1.27-.75,1.89-1.11l5.22-3.07c-3.21-1.41-6.41-2.55-9-4.92-1.35-1.21-3.12-2.46-4.1-4a21.27,21.27,0,0,1-2.63-6.17c-1.13-4.26-1.2-9.67.93-13.66a31.28,31.28,0,0,1,5.14-6.65,120.73,120.73,0,0,0,9.43-10.12,37.8,37.8,0,0,0,5.21-9A57.14,57.14,0,0,0,25.8,119a137.75,137.75,0,0,1,9.79-29.79c1.35-3,2.35-6,3.53-9.09a124.06,124.06,0,0,1,5.78-12.8,111.82,111.82,0,0,1,15.84-23A116.56,116.56,0,0,1,82,26.12,152.63,152.63,0,0,1,133.82,3.65,144.17,144.17,0,0,1,161.53.06c5.3-.16,10.61.06,15.9.18S187.85.41,193,.91a131.56,131.56,0,0,1,24.75,4.92,154.43,154.43,0,0,1,46.36,22.94c13.6,9.85,25.77,22,34.61,36.38a35.63,35.63,0,0,1,2.6,4.8l2.47,5.83,6.11,14.44ZM185.56,128.61q21.85-.19,43.7-.12t43.51.41l11,.19a67.36,67.36,0,0,0,7.77-.16c3.29-.32,6.9-1,9.51-3.2,5.17-4.33,3.35-12.61,2-18.25A116.56,116.56,0,0,0,277.15,57a121.84,121.84,0,0,0-21.27-19.12A131.08,131.08,0,0,0,230.24,23.8a143.59,143.59,0,0,0-29.51-8.57,159.43,159.43,0,0,0-32.28-2.38,155.58,155.58,0,0,0-31.64,4,140.68,140.68,0,0,0-28.39,10A128.76,128.76,0,0,0,83.78,42.23,120.2,120.2,0,0,0,63.87,62.31a116.13,116.13,0,0,0-19.61,37.9,80.39,80.39,0,0,0-2.94,12.51,19.13,19.13,0,0,0,.48,9,9.74,9.74,0,0,0,5.18,5.5c3.39,1.6,7.33,1.93,11,2,6.53.15,13.1-.42,19.62-.6,14.5-.39,29-.41,43.52-.32s28.9.3,43.35.37Q175,128.68,185.56,128.61ZM170.89,233.39l42.89,0h42.69q21.44,0,42.89-.06c9.43,0,19.92.54,27.78-5.69,7.14-5.66,8.66-15.76,6.45-24.21a19.09,19.09,0,0,0-6.32-10.06,27.34,27.34,0,0,0-10.86-5,62.63,62.63,0,0,0-13.35-1.7c-5.82-.14-10.68,2.82-15.25,6.09-9.82,7-21.32,12.29-33.61,12.09a44.78,44.78,0,0,1-16.74-3.64,56.09,56.09,0,0,1-8.42-4.49c-2.7-1.74-5.15-3.82-7.79-5.64a19.11,19.11,0,0,0-6.89-3.22,13.37,13.37,0,0,0-7.5.77c-3,1.17-5.76,3.13-8.68,4.57a61.45,61.45,0,0,1-9.07,3.65,56.4,56.4,0,0,1-36.58-1.37,73.7,73.7,0,0,1-9-4.1c-2.56-1.37-5-3-7.83-3.93a8.81,8.81,0,0,0-7.81.9c-1.36.9-2.55,2.07-3.82,3.08s-2.58,2-3.91,2.93c-9.06,6.36-19.69,10.55-30.91,9.82-11.76-.77-22.54-6.51-31.82-13.44a27,27,0,0,0-6.84-4,24.46,24.46,0,0,0-7.39-1.44,34.83,34.83,0,0,0-15.54,3.23c-5,2.23-10.09,5.43-13.44,9.83a18.73,18.73,0,0,0-3.57,14.74,25,25,0,0,0,7.11,13.33,24.5,24.5,0,0,0,11.38,5.88,59.63,59.63,0,0,0,14,1.26l21.36-.07q21.36-.05,42.71,0h42.91Zm2.67-92.72-46.39,0q-23.2,0-46.39,0l-23.2.05c-6.31,0-12.87-.75-19.11.38a21.44,21.44,0,0,0-8.7,3.58c-2,1.44-4,2.87-6.07,4.26-3.75,2.53-7.74,5.33-9.59,9.64-1.7,4-1.73,9.81,1.37,13.13,2.72,2.92,7.17,3.28,10.92,3.33,2.21,0,4.43-.1,6.64-.19s4.37.05,6.52-.17c4.8-.49,9.27-2.68,14.1-3a13.13,13.13,0,0,1,7.08,1.48c3,1.61,4.93,4.25,7.1,6.77,3.9,4.54,8.57,8.64,14.14,11a24.37,24.37,0,0,0,14.17,1.5,33.87,33.87,0,0,0,13.91-6.72,57.2,57.2,0,0,0,6.65-6.07c2.15-2.28,4.07-4.76,6.18-7.07,2.65-2.89,6.11-6.32,10.4-5.55a14.16,14.16,0,0,1,6,3.14c2.64,2.08,4.85,4.62,7.36,6.84a44.15,44.15,0,0,0,15.41,9.09c11,3.57,22.53,1.13,31.86-5.44a63.84,63.84,0,0,0,7.47-6.42,35.11,35.11,0,0,1,7-5.52,10,10,0,0,1,5.53-1.5,9.65,9.65,0,0,1,5,2.09c4.6,3.43,7.69,8.51,11.75,12.5a38.38,38.38,0,0,0,14.53,9.32c10.89,3.63,22.13.07,31.26-6.25a78.76,78.76,0,0,0,7.46-6,52.92,52.92,0,0,1,5.94-4.83,15.55,15.55,0,0,1,6.67-2.59,19.19,19.19,0,0,1,8.59,1.29c8.13,2.82,19.62,3.59,24.47-5.13,2.12-3.83,3-8.85.75-12.82-2-3.63-5.94-5.87-9.56-7.67-2.09-1-4.23-2-6.36-2.93a58,58,0,0,0-6.73-3,28.83,28.83,0,0,0-9.2-.83c-3.29.1-6.57.33-9.87.32q-23.17-.05-46.35-.05H173.56Zm72,150.8c-13.27-8.69-25.65-18.65-39-27.28-12.44-8.07-26-15-40.83-17-4.32-.58-8.69-.77-13-1q-7-.41-14-.64c-9.36-.32-18.72-.43-28.08-.42-18.77,0-37.53.5-56.29.74q-7,.09-14.07.12a61.28,61.28,0,0,0-10.49.6c-5.35.94-10.59,3.24-14.12,7.5-3.83,4.62-5.1,10.89-4.75,16.77a20.9,20.9,0,0,0,6.88,14.82c4.41,3.8,10.28,5.39,16,5.56,9.32.27,18.67.12,28,.16q28.26.12,56.53.13t56.73,0l56.73,0Zm-72.65,46.85c20.91,0,41.81-.07,62.72,0,10.45,0,20.89.07,31.34-.12,5.22-.09,10.44-.25,15.65-.49a28.31,28.31,0,0,0,10-2.09,21.21,21.21,0,0,0,11.74-13.55c1.57-5.11,3-13.59-2.93-16.49a17.52,17.52,0,0,0-7.3-1.3c-4-.08-7.93,0-11.89,0l-31.6,0-63,0-63,0q-31.6,0-63.19.09c-3.91,0-7.81-.11-11.72-.14-2.8,0-5.82.35-7.78,2.57-2.57,2.9-3,7.69-2.36,11.35a24.09,24.09,0,0,0,5.55,11.25c5.22,6.28,12.8,8.44,20.68,8.85,4.23.22,8.49.12,12.73.12l16,0q31.57,0,63.14,0ZM257,291.56c15.55-.94,31.13.17,46.69-.17,6.15-.13,12.78.07,18.5-2.52a20.65,20.65,0,0,0,10-9.73,24.29,24.29,0,0,0,2.22-15.71c-1.24-5.4-4.91-9.76-9.35-12.9-4.75-3.37-10.24-5.25-15.75-2.56-5,2.44-8.94,7-13.08,10.57-11.46,10-23.41,19.47-35,29.37Q259.14,289.72,257,291.56ZM208.8,247.32c7.18,5.75,14.11,11.8,21,17.88,4.54,4,9.06,8.2,14.13,11.53,2.47,1.62,5.93,3.73,8.93,2.36a28.68,28.68,0,0,0,5.32-3.44,87.36,87.36,0,0,0,7.33-6.33,106.79,106.79,0,0,0,17.81-22H208.8Z"/><path class="cls-1" d="M145.21,45.42H136.9c-.16,0-1,.12-1.13,0s0-.58,0-.72V37.4c0-.22-.15-1.19,0-1.37s2.08-.07,2.51-.07h5.28A4.66,4.66,0,0,1,145,36c.24.12.1,0,.16.38a34.83,34.83,0,0,1,0,5.15Z"/><path class="cls-1" d="M109,71.63h-8.31c-.16,0-1,.12-1.13,0s0-.58,0-.72v-7.3c0-.22-.15-1.19,0-1.37s2.08-.07,2.51-.07h5.28a4.66,4.66,0,0,1,1.51,0c.24.12.1,0,.16.38a34.83,34.83,0,0,1,0,5.15Z"/><path class="cls-1" d="M182.09,66.9h-8.31c-.16,0-1,.12-1.13,0s0-.58,0-.72v-7.3c0-.22-.15-1.19,0-1.37s2.08-.07,2.51-.07h5.28a4.66,4.66,0,0,1,1.51,0c.24.12.1,0,.16.38a34.83,34.83,0,0,1,0,5.15Z"/><path class="cls-1" d="M254.48,66.9h-8.31c-.16,0-1,.12-1.13,0s0-.58,0-.72v-7.3c0-.22-.15-1.19,0-1.37s2.08-.07,2.51-.07h5.28a4.66,4.66,0,0,1,1.51,0c.24.12.1,0,.16.38a34.83,34.83,0,0,1,0,5.15Z"/><path class="cls-1" d="M211.07,44.76h-8.31c-.16,0-1,.12-1.13,0s0-.58,0-.72v-7.3c0-.22-.15-1.19,0-1.37s2.08-.07,2.51-.07h5.28a4.66,4.66,0,0,1,1.51,0c.24.12.1,0,.16.38a34.83,34.83,0,0,1,0,5.15Z"/></g></g></svg>