<svg xmlns="http://www.w3.org/2000/svg" viewBox="0 0 526.25 446.57"><defs><style>.cls-1{fill:#0a0a0a;}</style></defs><title>Asset 1</title><g id="Layer_2" data-name="Layer 2"><g id="Layer_1-2" data-name="Layer 1"><path class="cls-1" d="M525.8,65.43c-3.53,16.9-10.19,26.26-21,36.17-7.65,7-14.35,15-22,22-20.35,18.61-46.93,23-70.38,8.37-1.16-.72-2.36-1.38-4.3-2.5L273.76,260.8,451.87,435a6.28,6.28,0,0,1,1.64,6.23h0a5.62,5.62,0,0,1-4.83,4h-.05a9,9,0,0,1-6.78-2.14c-.35-.3-.69-.61-1-.92q-86.67-84.83-173.41-169.6c-.74-.73-1.57-1.36-2.83-2.44-1.45,1.3-3,2.54-4.37,3.91C203.42,329.65,147.14,385.4,90.35,441c-1.07,1.05-3.07,3.15-3.07,3.15-4.4,3.75-9.86,3.16-11.4-1.73h0a7.82,7.82,0,0,1,2-7.93L255.41,260.82,139.08,147.06c-11.45,8.43-24.23,13-38.62,12.16-12.94-.76-24.71-4.81-34.05-14C44.72,124,23.29,102.45,1.8,81l-.2-.2a6.08,6.08,0,0,1,.05-8.28h0A5.47,5.47,0,0,1,9.07,72,73.73,73.73,0,0,1,15,77.05q27.22,26.83,54.27,53.84C76,137.65,83.53,143,93.11,145.2c12.64,2.93,22.92,1.17,35.33-7.1-2-2.25-3.82-4.57-5.89-6.64Q82.18,91.14,41.79,50.85a70.3,70.3,0,0,1-5-5.72,6,6,0,0,1,.56-8.07l.06-.06a5.71,5.71,0,0,1,7.46-.29c10.93,8.73,19.53,19,29.16,28.18,10.87,10.34,21.45,21,32.17,31.51s21.43,21,32.18,31.47c12.84-16.18,11.85-38.7-2.78-54.38-10.23-11-21.18-21.27-31.83-31.85-9.16-9.11-18.36-18.17-27.49-27.31C75,13,73.67,11.51,72.19,9.83c-1.66-1.88-1.42-5.43.09-7.44h0c1.33-1.78,4.67-3.11,6.56-2A19.43,19.43,0,0,1,82.38,3c21.14,20.82,42.4,41.52,63.2,62.68,16.54,16.82,19.44,42.76,7.87,63.94-1.48,2.71-3.22,5.27-5.18,8.46l116.3,113.77c44.86-43.87,91-88.69,134.35-131-5.76-9.86-10-18.3-12.09-27.93-3.8-17.51,1.45-33.21,13.75-46.14,10.1-10.62,20.51-21,31.26-30.93C453.71-4.44,487-3.45,508.45,17.26c8.86,8.55,14.7,18.41,17,30.46C525.46,47.72,527,59.82,525.8,65.43ZM469,14.15A42,42,0,0,0,438.75,26.4c-9.05,8.71-18,17.49-26.76,26.53-17.15,17.78-17.43,43.36-1.86,60.27a43.85,43.85,0,0,0,62.73,2.52c9.91-9.32,19.83-18.71,28.9-28.82,12.59-14,15.19-30.42,7.29-47.59C501.31,22.49,487.3,14.64,469,14.15Z"/><path class="cls-1" d="M277.43,113.93v9.67H253.6v26.72H241.28v-65H282.4v9.39H253.57v19.25Z"/><path class="cls-1" d="M107.54,291H96.14v-65.1h11.4Z"/><path class="cls-1" d="M376.24,232h12c0,10.58-.1,20.92,0,31.26a72.21,72.21,0,0,0,1.09,13.48c1.35,6.57,5.91,10.05,12.52,10.56,7.45.57,13.27-2.35,15.63-9,1.24-3.51,1.22-7.43,1.31-11.19.26-11.15-.19-22.05-.13-33.2,0-.34,0-1.71,0-1.71h11.73c0,14.24,1,28.5-.27,42.56-1.43,15.87-12.89,24.11-29.17,23.2-14.64-.82-24.15-10.47-24.66-25.82-.4-12.19-.09-24.4-.05-36.6C376.29,234.46,376.24,232,376.24,232Z"/><path class="cls-1" d="M235.13,361.83c10.3,0,20-.77,29.63.17,17.31,1.7,28.39,15.22,28.14,32.95-.25,17.48-12,30.9-29.15,32.19-9.29.7-18.67.12-28.61.12Zm12,55.25c11.9.06,23.94,2.63,30.29-10.06,4.66-9.3,4.51-19.22-1.62-27.83-7.19-10.09-18-8.26-28.67-7.45Z"/></g></g></svg>